<svg width="1920" height="937" viewBox="0 0 1920 937" fill="none" xmlns="http://www.w3.org/2000/svg">
<rect width="1920" height="937" fill="#0F3F36"/>
<path d="M56.7241 53.1474C54.8708 51.7161 53.1438 50.4037 51.4453 49.0672C50.3305 48.1898 50.5712 47.225 51.1857 46.2212C51.948 44.9814 52.9532 44.5222 54.2967 45.1059C56.2119 45.9424 58.0104 46.9388 59.8732 47.8515C60.7284 48.2716 61.817 47.8923 61.7265 47.1841C61.4621 45.1319 61.1857 43.0779 60.7879 41.0387C60.4497 39.3174 60.2686 37.6239 60.9761 35.9324C61.3239 35.0996 61.7265 34.0716 62.9461 34.1293C63.918 34.1757 65.0472 34.7446 65.7213 35.3431C66.4002 35.9491 66.7742 36.8507 66.9838 37.6686C67.5912 40.0312 68.0748 42.4124 68.5536 44.7918C68.9895 46.9592 69.4469 49.1155 70.5569 51.1435C72.4364 50.7718 72.8318 49.4055 74.011 48.6768C74.7447 48.2232 75.5165 47.9184 76.405 48.318C77.2078 48.6805 77.7795 49.2103 77.4389 50.0022C76.7218 51.6547 77.689 52.1919 79.6638 52.1845C81.6504 52.1789 83.6395 52.1826 85.619 52.2904C86.6957 52.3481 87.8272 52.4987 88.7991 52.8407C89.79 53.1883 90.6357 53.8314 90.4285 54.8482C90.2903 55.5323 90.033 56.2591 89.1231 56.5212C87.477 56.9971 85.7881 57.3949 84.0968 57.7686C81.6194 58.3169 79.123 58.8169 75.8929 59.4917C78.4941 61.635 80.6046 63.334 82.6509 65.0776C83.7038 65.9717 84.5709 66.9588 84.4851 68.286C84.4423 68.9125 83.4322 69.6505 82.7009 69.4088C81.7005 69.0779 80.6737 68.7378 79.7971 68.2489C77.8486 67.1596 75.9834 65.9773 74.1849 64.8917C72.4579 65.4197 73.0368 66.3993 73.1082 67.141C73.3988 70.0594 73.8252 72.9667 74.1682 75.8814C74.2873 76.9094 74.3731 77.9429 74.3683 78.9764C74.3588 81.3074 73.3083 82.9916 72.041 82.7462C69.8376 82.3168 68.9109 80.945 68.4297 79.3872C67.6556 76.8796 67.0005 74.3497 66.2692 71.8346C66.1334 71.3662 65.8714 70.9201 65.6951 70.5185C64.5017 70.2732 63.9919 70.8866 63.3797 71.3625C62.5007 72.0465 61.5693 72.2789 60.5355 71.5186C59.8066 70.9833 59.6493 70.3383 60.0281 69.6579C60.8189 68.2377 61.6789 66.8399 62.5102 65.4327C62.9724 64.652 63.5059 63.8917 63.8871 63.0886C64.554 61.6833 63.7704 60.7018 61.9123 60.5587C60.1639 60.4249 58.3749 60.4658 56.6598 60.1962C54.9375 59.9248 52.9866 59.356 52.6126 57.921C52.1981 56.3279 53.2296 54.9394 55.2472 54.14C55.7522 53.9411 56.1357 53.5526 56.7241 53.1474" fill="#FAB70C"/>
<path d="M557.963 833.482C559.351 833.502 560.752 833.448 562.125 833.569C562.919 833.64 563.716 833.931 564.429 834.238C564.887 834.437 565.251 834.82 565.147 835.324C565.022 835.925 564.602 836.323 563.816 836.384C562.432 836.493 561.041 836.542 559.657 836.651C558.998 836.703 558.273 836.646 557.747 837.103C557.553 837.748 558.235 838.048 558.635 838.464C559.803 839.676 560.985 840.88 562.11 842.116C562.612 842.668 562.697 843.312 562.462 843.985C562.271 844.527 561.412 844.93 560.863 844.634C560.067 844.206 559.278 843.75 558.593 843.222C557.904 842.691 557.353 842.053 556.728 841.47C556.375 841.139 555.978 840.727 555.376 840.867C554.636 841.04 554.97 841.58 555.044 841.947C555.514 844.308 556.017 846.662 556.543 849.014C556.688 849.659 556.933 850.301 556.594 850.934C556.441 851.22 556.179 851.597 555.866 851.671C555.572 851.74 555.011 851.543 554.8 851.326C554.389 850.905 554.054 850.411 553.848 849.908C553.386 848.773 552.971 847.621 552.633 846.46C552.255 845.157 551.876 843.957 549.85 843.571C549.167 843.44 549.008 842.733 549.202 842.171C549.381 841.65 549.66 841.148 549.936 840.65C550.283 840.027 550.363 839.4 550.1 838.75C549.793 837.994 549.402 837.332 548.155 837.338C547.322 837.343 546.473 837.343 545.658 837.225C544.572 837.07 543.488 836.854 542.451 836.559C541.798 836.372 541.24 835.951 541.347 835.326C541.443 834.752 541.911 834.332 542.677 834.238C543.5 834.136 544.339 834.118 545.163 834.025C545.745 833.959 546.008 833.385 545.608 833.039C544.959 832.476 544.246 831.958 543.593 831.399C543.316 831.163 542.957 830.88 542.926 830.6C542.886 830.196 543.017 829.74 543.245 829.371C543.519 828.929 544.11 828.908 544.685 829.01C545.733 829.195 546.472 830.1 547.865 829.812C547.463 827.441 547.049 825.089 546.669 822.734C546.512 821.771 546.324 820.8 546.888 819.855C547.191 819.35 548 819.206 548.624 819.519C549.669 820.045 549.976 820.859 550.187 821.724C550.971 824.923 551.748 828.123 552.53 831.321C552.633 831.745 552.601 832.248 552.891 832.57C553.306 833.029 553.837 832.76 554.24 832.417C554.704 832.033 554.516 831.452 554.92 831.05L554.914 831.054C557.744 830.478 556.423 833.075 557.963 833.482" fill="#FAB90C"/>
<path d="M557.964 833.482C557.215 833.428 556.855 833.06 556.688 832.528C556.452 831.779 555.795 831.334 554.915 831.054C554.927 829.82 555.622 828.772 556.46 827.785C556.651 827.561 557.146 827.364 557.486 827.377C558.042 827.398 558.466 827.709 558.671 828.149C558.978 828.809 558.585 829.411 558.436 830.037C558.165 831.175 557.246 832.262 557.964 833.482Z" fill="#F9C52B"/>
<path d="M554.92 831.05C555.039 831.61 554.892 832.09 554.24 832.417C554.132 831.859 554.358 831.404 554.92 831.05Z" fill="#F9C52B"/>
<path d="M1016.41 855.956C1014.57 857.8 1012.73 859.631 1010.92 861.491C1010.43 861.999 1011.1 862.92 1011.94 862.907C1014.29 862.873 1016.65 862.801 1018.99 862.725C1020.5 862.678 1022 862.593 1023.36 863.241C1024.23 863.653 1025.52 863.767 1025.51 864.832C1025.51 865.847 1025.3 866.944 1024.13 867.5C1022.88 868.094 1021.45 868.499 1020.03 868.834C1016.35 869.709 1012.61 870.442 1008.94 871.339C1006.23 872 1006.01 872.497 1007.31 874.641C1008.87 877.205 1010.54 879.726 1012.16 882.265C1013.03 883.627 1013.72 885.032 1013.43 886.587C1013.32 887.224 1013.2 887.929 1012.23 888.214C1011.34 888.476 1010.46 888.322 1009.85 887.869C1009.09 887.311 1008.52 886.594 1007.89 885.937C1007.28 885.303 1006.94 884.443 1005.41 884.398C1004.54 889.863 1004.56 895.342 1005.02 900.83C1005.08 901.493 1005.36 902.145 1005.41 902.808C1005.53 904.316 1004.72 905.607 1003.63 905.742C1002.06 905.939 999.666 904.726 999.215 903.4C998.891 902.436 998.699 901.435 998.567 900.44C997.701 893.802 996.528 887.177 996.657 880.479C996.678 879.49 996.882 878.473 995.385 877.595C993.943 878.96 992.517 880.36 991.022 881.711C989.629 882.973 988.257 884.268 986.699 885.402C984.561 886.961 981.348 886.26 980.909 884.022C980.622 882.565 980.295 881.36 978.435 880.885C976.03 880.273 975.743 878.968 976.158 877.328C976.407 876.353 976.514 875.329 977.615 874.631C978.037 874.317 978.53 874.095 979.076 873.943C982.762 873.501 984.908 870.778 988.358 870.104C988.296 870.124 988.719 870.131 988.719 870.131C988.719 870.131 988.574 869.82 988.541 869.835C987.923 869.999 987.386 869.875 986.843 869.671C986.195 869.28 985.792 868.843 986.22 868.199L986.222 868.217C987.002 867.727 988.252 867.841 988.761 867.007C989.911 866.035 990.177 865.078 989.018 863.926C987.234 862.152 987.356 860.195 988.604 858.275C988.974 857.706 989.661 857.164 990.677 857.556C992.207 858.147 993.681 858.831 995.239 859.368C996.213 859.702 996.917 859.257 996.96 858.472C997.224 853.469 997.43 848.465 997.669 843.463C997.789 840.952 998.076 838.466 999.559 836.167C1000.43 834.819 1001.23 834.729 1003.16 835.312C1005.26 835.945 1006.2 836.997 1006.08 838.728C1005.69 844.676 1006.28 850.645 1005.24 856.55C1006.99 856.915 1007.56 855.667 1008.69 855.326C1014.54 852.904 1014.54 852.904 1016.41 855.956" fill="#FAB90B"/>
<path d="M1016.41 855.956C1014.21 854.163 1014.08 854.02 1012.08 855.124C1010.83 855.819 1009.86 855.667 1008.69 855.326C1009.61 853.545 1011.61 852.588 1013.5 851.584C1014.16 851.234 1015.02 851.053 1015.83 850.955C1017.88 850.708 1019.43 852.207 1018.76 853.791C1018.36 854.741 1017.67 855.553 1016.41 855.956" fill="#F9CA3C"/>
<path d="M979.052 874.621C978.573 874.624 978.096 874.628 977.617 874.631C979.184 871.428 982.197 869.4 986.222 868.199C986.717 868.551 987.215 868.901 987.71 869.253C986.127 872.322 982.697 873.575 979.052 874.621" fill="#FAC325"/>
<path d="M988.762 867.007C988.383 868.005 987.42 868.26 986.224 868.217C986.765 867.424 987.672 867.099 988.762 867.007Z" fill="#FAC325"/>
<path d="M979.051 874.62C981.937 872.833 984.825 871.043 987.708 869.253C988.565 869.194 989.421 869.134 990.275 869.074C990.666 869.298 990.805 869.53 990.687 869.768C990.571 870.003 990.451 870.124 990.323 870.129C987.44 871.711 984.549 873.28 981.689 874.882C980.659 875.46 979.814 875.413 979.051 874.62" fill="#FACC3C"/>
<path d="M983.862 877.364C983.478 877.246 982.953 877.207 982.802 876.999C982.668 876.817 982.832 876.349 983.07 876.179C983.934 875.563 984.778 874.801 986.174 875.207C986.289 875.242 986.405 875.471 986.38 875.594C986.158 876.717 985.112 877.138 983.862 877.364Z" fill="#FACB38"/>
<path d="M990.323 870.129C990.307 869.779 990.291 869.427 990.274 869.076C990.575 868.605 991.08 868.108 991.705 868.423C992.454 868.798 991.836 869.282 991.397 869.609C991.098 869.831 990.684 869.959 990.323 870.129" fill="#FAC325"/>
<path d="M1132.08 46.799C1132.86 46.6842 1133.65 46.5694 1134.44 46.4547C1136.23 45.8387 1138.05 46.0843 1139.93 46.189C1142.85 46.35 1144.36 45.3859 1143.18 42.9282C1140.59 41.4347 1139.36 39.1963 1137.88 37.0849C1137.07 35.9436 1137.7 34.9291 1138.26 33.9046C1138.83 32.874 1140.03 32.4573 1141.14 32.9685C1143.39 33.9991 1145.44 35.2813 1147.59 36.4387C1148.43 36.8876 1149.69 36.4689 1149.68 35.7342C1149.66 33.502 1149.69 31.2657 1149.51 29.0395C1149.16 24.7481 1149.63 20.4868 1150.08 16.2236C1150.2 15.0944 1150.5 14.0256 1151.46 13.1158C1151.99 12.6186 1152.75 12.4576 1153.35 12.683C1155.32 13.4378 1157.05 14.4423 1157.27 16.3545C1157.58 19.1343 1157.89 21.916 1158.14 24.6998C1158.27 26.1833 1158.16 27.6889 1158.41 29.1583C1158.64 30.5411 1157.79 32.566 1160.04 33.039C1161.65 33.3792 1162.46 31.5072 1163.71 30.694C1164.07 30.4545 1164.41 30.1808 1164.8 29.9795C1166.21 29.2609 1167.48 29.5346 1168.69 30.3418C1169.81 31.0966 1169.69 31.9783 1169.02 32.8237C1167.13 35.1888 1165.18 37.5196 1163.25 39.8646C1163.58 42.584 1166.27 41.7567 1168.28 41.8754C1169.95 41.974 1171.99 41.9439 1171.96 43.6307C1171.94 44.7881 1170.15 45.1685 1168.72 45.3879C1167.68 45.5469 1166.54 45.396 1165.63 45.9535C1166.97 45.8207 1167.96 46.04 1167.88 47.3262C1166.7 47.8939 1165.02 48.3649 1166.49 49.7578C1168.91 52.0484 1171.53 54.2062 1173.89 56.5331C1175.48 58.1112 1175.65 59.9187 1174.3 61.7404C1173.67 62.5999 1172.42 62.94 1171.33 62.3381C1169.99 61.5954 1168.71 60.7702 1167.46 59.9208C1165.89 58.8459 1164.66 57.4127 1162.48 56.9699C1160.89 57.3563 1161.23 58.4353 1161.12 59.2545C1160.79 61.839 1160.58 64.4315 1160.35 67.0221C1160.22 68.5277 1159.82 69.9387 1158.69 71.2108C1157.76 72.2575 1156.47 72.3782 1155.07 71.5268C1153.67 70.6814 1152.68 69.6871 1152.95 68.2338C1153.63 64.6328 1151.72 61.3015 1151.58 57.9058C1149.34 57.3302 1148.84 58.6788 1147.93 59.4034C1146.91 60.2206 1145.93 60.2528 1144.82 59.6288C1143.71 59.0008 1143.5 58.1554 1143.98 57.1852C1144.58 55.9775 1145.21 54.7719 1146.51 53.8902C1148.28 52.0827 1147.76 50.8629 1144.91 50.3899C1144.44 50.3114 1143.7 49.8806 1143.22 50.5147C1143.98 50.7824 1144.18 51.2151 1143.84 51.8069L1143.24 51.9881L1142.59 51.9558C1137.62 52.9482 1132.68 53.4655 1127.85 51.509H1127.82C1127.65 47.0747 1132.36 48.7574 1136.08 48.0127C1136.06 48.0127 1134.54 47.4048 1134.7 48.1394C1134.75 48.3568 1134.55 48.3287 1134.06 48.2965C1132.85 48.214 1131.72 48.1234 1132.08 46.799" fill="#FAB60A"/>
<path d="M1167.88 47.3263C1166.85 46.0723 1164.7 47.0425 1163.5 45.9818C1165.54 44.5184 1168.46 44.5526 1171.4 43.1738C1168.2 42.89 1165.51 43.2423 1163.3 42.0104C1162.03 41.3019 1162.1 40.5953 1163.25 39.8647C1164.24 41.0925 1165.75 40.7302 1167.1 40.5289C1170.15 40.072 1173.17 39.5486 1176.19 38.9729C1177.42 38.7374 1178.47 38.7435 1179.57 39.3171C1180.94 40.0337 1181.37 41.0462 1180.78 42.1533C1180.1 43.4456 1178.95 44.3554 1177.32 44.8163C1174.19 45.6979 1171.24 46.9901 1167.88 47.3263" fill="#F9C32A"/>
<path d="M1143.84 51.8069C1142.87 50.5046 1140.81 51.2675 1139.05 50.092C1140.86 49.8383 1142.27 49.6511 1143.68 49.4357C1145.36 49.1781 1147.53 47.4752 1148.57 49.1922C1149.44 50.6414 1148.8 52.7429 1146.51 53.8903C1146.79 52.282 1145.4 51.98 1143.84 51.8069" fill="#FAC426"/>
<path d="M1143.18 42.9284C1143.39 43.021 1143.63 43.0833 1143.79 43.2081C1145.05 44.1803 1145.78 45.6255 1145.12 46.6763C1144.33 47.9403 1142.22 47.4593 1140.65 47.3023C1138.56 47.095 1136.51 46.7447 1134.44 46.4548C1135.83 45.2813 1137.8 45.3639 1139.58 45.0499C1141.2 44.766 1142.8 44.4763 1143.18 42.9284Z" fill="#F9C126"/>
<path d="M1132.08 46.7991C1133.05 48.1075 1135.17 47.2721 1136.83 48.5583C1134.99 48.7314 1133.54 48.9045 1132.08 48.9951C1129.95 49.128 1128.73 50.1445 1127.82 51.5092C1127.07 51.326 1126.55 50.8852 1126.69 50.3196C1127.25 48.029 1128.93 46.7126 1132.08 46.7991Z" fill="#F9C126"/>
<path d="M1127.85 51.5092C1132.72 52.5639 1137.67 51.9378 1142.59 51.956C1138.77 53.7655 1134.54 53.2784 1130.41 53.1738C1129.24 53.1456 1128.37 52.3807 1127.85 51.5092" fill="#F9C126"/>
<path d="M1162.37 43.9326C1162.17 43.9849 1161.98 44.0373 1161.78 44.0916C1161.73 43.9588 1161.58 43.7394 1161.62 43.7092C1162.13 43.3932 1162.39 43.4817 1162.37 43.9326Z" fill="#F9C32A"/>
<path d="M108.832 808.245C109.109 808.448 109.386 808.65 109.664 808.852C110.117 809.562 109.524 809.748 108.867 809.881C108.662 809.876 108.458 809.795 108.3 809.643C108.402 809.812 108.574 809.925 108.844 809.986C109.505 810.248 109.939 810.666 109.866 811.204C109.807 811.642 109.354 811.882 108.727 811.655C108.462 811.657 108.258 811.572 108.112 811.4C107.701 811.549 107.119 810.7 107.059 811.275C106.934 812.459 106.543 813.736 107.551 814.851C108.738 817.416 109.321 820.088 109.851 822.769C109.93 823.18 109.798 823.622 109.718 824.045C109.651 824.404 108.792 824.59 108.347 824.417C107.361 824.036 107.033 823.303 106.76 822.587C105.808 820.091 104.92 817.581 104.016 815.074C103.781 814.429 103.53 813.811 102.474 813.757C101.949 814.108 102.134 814.713 101.691 815.094L101.692 815.091C101.197 815.464 101.37 816.053 100.969 816.457L100.976 816.451C98.4118 816.464 98.5968 815.244 99.0901 813.887V813.886C99.5955 813.481 99.4135 812.883 99.7624 812.434C99.7038 811.723 100.09 811.128 100.567 810.556C101.121 809.604 101.029 808.863 99.418 808.888C98.6103 808.9 97.7695 809.135 96.9798 809.007C95.8337 808.823 94.1551 809.128 93.7595 808.038C93.3008 806.775 95.5614 807.011 96.0578 806.151C96.6234 805.802 97.201 805.388 96.5392 804.838C95.3103 803.812 93.9821 802.858 92.7172 801.858C92.4314 801.63 92.1591 801.358 92.0117 801.065C91.6658 800.382 92.0508 799.797 92.6389 799.32C93.0646 798.979 93.7219 798.963 94.1882 799.192C95.7088 799.94 97.1693 800.765 98.6689 801.54C99.2164 801.821 99.6512 802.338 100.713 802.122C100.93 800.678 100.403 799.238 100.161 797.784C99.7851 795.531 99.403 793.28 99.1052 791.022C99.0375 790.509 99.2164 789.944 99.4556 789.455C99.5669 789.226 100.042 789.032 100.505 789.273C101.262 789.666 101.537 790.265 101.709 790.906C102.47 793.764 103.217 796.625 103.974 799.484C104.087 799.906 104.145 800.351 104.368 800.736C104.538 801.031 105.015 801.185 105.368 800.912C105.854 800.537 106.212 800.063 106.681 799.675C107.199 799.249 107.816 799.082 108.518 799.467C109.041 799.753 109.193 800.163 109.019 800.596C108.855 801 108.542 801.367 108.294 801.75C107.831 802.141 108.002 802.715 107.647 803.136L107.668 803.107C107.462 803.228 107.357 803.287 107.357 803.287C107.415 803.533 107.603 803.643 107.921 803.617C108.377 803.601 108.834 803.584 109.29 803.568C109.803 803.844 109.258 804.472 109.332 804.434C112.393 802.877 116.049 803.249 119.349 802.509L119.336 802.506C119.651 802.942 120.706 803.101 120.173 803.858L120.169 803.868C119.925 804.11 119.647 804.329 119.415 804.577L119.42 804.575C118.632 804.893 117.504 804.539 116.955 805.332L116.959 805.33C114.742 805.319 112.617 805.719 110.552 806.295C109.457 806.601 108.044 806.87 108.832 808.245" fill="#FABC0D"/>
<path d="M108.727 811.655C109.312 811.392 109.435 811.063 108.993 810.629C108.654 810.296 108.343 809.942 108.02 809.599L108.014 809.603C108.719 809.562 109.331 809.394 109.664 808.852C111.411 809.466 112.682 810.712 114.671 811.045C115.513 811.187 116.014 811.786 115.778 812.547C115.503 813.434 114.355 814.024 113.271 813.769C111.541 813.363 109.939 812.754 108.727 811.655" fill="#F9C324"/>
<path d="M96.0566 806.151C96.21 807.083 95.1843 807.35 94.2562 807.994C95.7994 808.263 96.9997 808.872 98.5565 808.571C99.3867 808.412 99.9072 807.034 100.853 807.952C101.599 808.675 101.718 809.759 100.566 810.556C100.422 809.914 100.295 809.263 99.1386 809.345C97.636 809.452 96.1333 809.576 94.6277 809.652C93.811 809.692 92.9792 809.701 92.17 809.624C91.4615 809.557 90.878 809.205 90.7095 808.647C90.5365 808.08 90.9125 807.587 91.457 807.24C92.7881 806.391 94.3314 806.023 96.0566 806.151" fill="#F9C72C"/>
<path d="M108.832 808.245C108.28 808.091 107.974 807.759 107.742 807.36C107.497 806.932 107.453 806.452 108.05 806.283C110.926 805.473 113.704 804.001 116.959 805.33C115.288 806.264 113.241 806.405 111.383 806.949C110.421 807.231 109.224 807.266 108.832 808.245" fill="#F9C428"/>
<path d="M119.348 802.509C117.608 803.384 115.651 803.774 113.631 803.853C112.389 803.901 111.339 804 110.33 804.696C109.642 805.17 108.561 805.125 107.619 804.831C107.887 804.169 109.125 804.301 109.289 803.568C109.764 803.392 110.22 803.128 110.721 803.056C112.975 802.732 115.244 802.461 117.506 802.178C118.174 802.094 118.847 802.015 119.348 802.509" fill="#F9C428"/>
<path d="M99.0897 813.887C99.1318 815.005 99.398 816.021 100.976 816.451C101.056 817.122 100.633 817.675 100.264 818.233C99.947 818.715 99.5123 819.168 98.7121 818.933C98.0593 818.742 97.5509 818.332 97.59 817.743C97.6848 816.368 98.0744 815.049 99.0897 813.887" fill="#F9C222"/>
<path d="M107.551 814.851C106.125 813.995 106.677 812.728 106.466 811.624C106.387 811.216 106.406 810.698 107.218 810.826C107.551 810.879 107.817 811.201 108.112 811.4C107.461 811.697 107.336 812.17 107.384 812.71C107.45 813.424 107.497 814.137 107.551 814.851" fill="#F9C324"/>
<path d="M116.953 805.332C117.38 803.968 117.38 803.968 119.418 804.575C118.853 805.334 117.913 805.354 116.953 805.332Z" fill="#F9C428"/>
<path d="M120.173 803.858C119.893 803.407 119.615 802.956 119.335 802.506C120.764 802.837 120.832 802.947 120.173 803.858Z" fill="#F9C428"/>
<path d="M101.69 815.094C101.627 814.532 101.785 814.051 102.474 813.757C102.533 814.317 102.251 814.755 101.69 815.094Z" fill="#F9C222"/>
<path d="M99.762 812.434C99.8884 813.017 99.8102 813.541 99.0897 813.886C99.0024 813.315 99.1904 812.82 99.762 812.434Z" fill="#F9C222"/>
<path d="M107.647 803.136C107.5 802.571 107.633 802.084 108.294 801.75C108.358 802.291 108.137 802.752 107.647 803.136Z" fill="#F9C428"/>
<path d="M100.968 816.457C100.881 815.896 101.018 815.406 101.691 815.09C101.753 815.643 101.548 816.111 100.968 816.457Z" fill="#F9C222"/>
<path d="M119.414 804.577C119.665 804.34 119.916 804.105 120.168 803.868C120.192 804.284 119.933 804.514 119.414 804.577Z" fill="#F9C428"/>
<path d="M107.92 803.617C107.708 803.576 107.495 803.534 107.284 803.493C107.412 803.364 107.54 803.235 107.668 803.107C107.817 803.257 107.901 803.428 107.92 803.617" fill="#F9C428"/>
<path d="M108.02 809.599C107.904 809.555 107.68 809.499 107.686 809.471C107.729 809.258 107.857 809.305 108.014 809.603L108.02 809.599Z" fill="#F9C324"/>
<path d="M1000.54 216.243C1000.98 217.671 1000.89 219.103 1000.58 220.534C1000.44 221.155 999.888 221.732 999.219 221.756C998.609 221.778 997.869 221.351 997.366 220.973C996.379 220.236 996.273 219.18 996.032 218.191C995.559 216.246 995.084 214.299 994.594 212.291C992.414 212.762 992.298 214.446 990.812 215.06C990.06 215.37 989.432 215.277 988.811 214.852C988.185 214.423 987.808 213.767 988.319 213.34C990.365 211.634 991.257 209.373 993.08 207.573C991.225 204.702 988.921 205.043 986.39 207.008C984.91 207.376 983.422 207.581 981.908 207.112C981.519 206.844 981.106 206.597 980.675 206.37L980.695 206.392C980.069 204.946 981.265 204.129 982.658 203.864C985.446 203.336 987.329 201.974 989.055 200.365C990.164 200.835 990.567 200.386 990.7 199.57C993.357 199.279 993.106 197.797 992.946 196.32C992.603 193.168 992.737 189.995 992.332 186.849C992.005 184.299 993.752 184.275 996.084 184.799C997.658 187.198 997.404 189.866 997.911 192.422C998.244 194.095 998.172 195.837 999.568 197.29C1001.1 197.074 1001.37 195.926 1002.19 195.195C1002.91 194.552 1003.59 193.641 1004.85 194.294C1005.91 194.84 1005.06 195.603 1004.71 196.204C1004.09 197.254 1003.33 198.251 1002.67 199.286C1002.26 199.937 1001.92 200.614 1002.29 201.362C1004.03 202.052 1007.48 201.375 1006.3 204.404L1005.8 204.58L1005.25 204.597C1003.69 204.545 1002.29 204.622 1002.88 206.346L1003.03 206.497C1003.49 206.614 1003.83 206.847 1004.05 207.184L1004.21 207.271C1004.66 207.44 1005.03 207.68 1005.35 207.975L1005.38 207.994C1005.4 208.135 1005.46 208.396 1005.45 208.398C999.361 209.324 1000.97 213.174 1000.54 216.243" fill="#F9B70D"/>
<path d="M996.085 184.799C995.07 185.095 994.053 185.391 992.988 185.701C993.209 189.992 993.395 194.29 993.666 198.585C993.74 199.769 993.079 200.06 991.719 200.041C991.294 200.035 990.859 200.48 990.427 200.717C989.711 200.807 988.675 200.962 988.729 201.506C988.871 202.897 988.228 203.577 986.501 203.819C985.454 203.966 984.459 204.345 983.415 204.523C982.037 204.761 981.237 205.445 980.695 206.392C979.336 204.951 979.46 203.6 981.159 202.955C982.635 202.397 984.221 202.016 985.811 201.542C985.017 199.977 983.014 199.553 981.874 198.452C981.221 197.818 981.163 197.11 981.636 196.447C982.117 195.772 982.985 195.4 983.96 195.603C985.015 195.824 986.048 196.16 987.01 196.564C988.603 197.232 990.129 197.996 991.55 198.658C993.022 198.165 992.521 197.365 992.483 196.732C992.314 193.854 992.06 190.981 991.885 188.104C991.823 187.101 991.795 186.083 991.956 185.092C992.092 184.244 992.489 183.26 993.815 183.236C994.964 183.216 995.864 183.801 996.085 184.799" fill="#FABC13"/>
<path d="M1000.54 216.243C1000.38 214.664 1000.13 213.085 1000.07 211.504C999.983 209.302 1000.46 208.911 1003.52 208.645C1004.29 208.578 1004.96 208.569 1005.38 207.994C1007 208.664 1008.64 209.291 1010.21 210.016C1011.3 210.515 1011.68 211.545 1011.16 212.223C1010.46 213.133 1009.31 213.166 1008.27 212.827C1006.08 212.121 1003.96 211.29 1001.62 210.437C1000.34 212.349 1001.97 214.499 1000.54 216.243" fill="#F9C022"/>
<path d="M1006.3 204.404C1006.18 203.494 1005.51 202.938 1004.47 202.533C1003.69 202.226 1003.01 201.764 1002.29 201.367C1005.28 200.658 1008.58 200.876 1011.35 199.508C1011.9 199.232 1012.41 199.483 1012.87 199.73C1013.57 200.101 1013.75 200.66 1013.54 201.246C1013.21 202.098 1012.64 202.85 1011.57 203.254C1009.9 203.879 1008.27 204.611 1006.3 204.404Z" fill="#F9C62F"/>
<path d="M986.389 207.008C985.942 206.592 985.491 206.176 985.016 205.736C985.918 204.838 987.326 205.173 988.425 204.794C990.552 204.062 992.271 204.961 993.641 206.155C994.166 206.614 993.739 207.209 993.079 207.573C992.584 206.794 991.698 206.783 990.757 206.83C989.305 206.9 987.847 206.949 986.389 207.008" fill="#FABC13"/>
<path d="M1002.88 206.346C1002.47 205.9 1002 205.479 1001.67 204.999C1001.25 204.382 1001.51 203.916 1002.42 203.783C1003.56 203.614 1004.58 203.749 1005.25 204.597C1004.74 205.412 1003.06 205.259 1002.88 206.346" fill="#F9C62F"/>
<path d="M1005.35 207.975C1004.97 207.741 1004.59 207.506 1004.21 207.271C1004.81 207.285 1005.18 207.531 1005.35 207.975Z" fill="#F9C022"/>
<path d="M1004.05 207.184C1003.71 206.954 1003.37 206.725 1003.03 206.497C1003.58 206.534 1003.91 206.777 1004.05 207.184Z" fill="#F9C022"/>
<path d="M980.674 206.37C981.085 206.619 981.496 206.865 981.907 207.112C981.231 207.134 980.88 206.824 980.674 206.37Z" fill="#FABC13"/>
<path d="M996.248 200.145C996.096 200.187 995.945 200.229 995.793 200.27C995.747 200.167 995.633 199.993 995.671 199.968C996.066 199.719 996.266 199.79 996.248 200.145" fill="#FABC13"/>
<path d="M990.427 200.717L990.894 200.894L990.701 201.06L990.427 200.717Z" fill="#FABC13"/>
</svg>
